# xmcd CD database file
#
# Track frame offsets:
#	150
#	24845
#	49937
#	59345
#	72935
#	98477
#	126385
#	142680
#	157497
#	170632
#
# Disc length: 2304 seconds
#
# Revision: 0
# Processed by: cddbd v1.5.1PL2 Copyright (c) Steve Scherf et al.
# Submitted via: CDex 1.51
#
DISCID=8908fe0a
DTITLE=Opus III - Mind Fruit
DYEAR=1900
DGENRE=New Age
TTITLE0=Its a fine day
TTITLE1=I talk to the Wind
TTITLE2=Flow
TTITLE3=Stars in my Pocket
TTITLE4=Sea people
TTITLE5=Evolution rush
TTITLE6=Into this universe
TTITLE7=Up
TTITLE8=Alzir
TTITLE9=Outro
EXTD=
EXTT0=
EXTT1=
EXTT2=
EXTT3=
EXTT4=
EXTT5=
EXTT6=
EXTT7=
EXTT8=
EXTT9=
PLAYORDER=
